<svg xmlns="http://www.w3.org/2000/svg" viewBox="0 0 200 60" fill="none">
  <!-- Shield shape -->
  <path d="M30 8L50 4L70 8L68 28L50 48L32 28L30 8Z" fill="#E8562A" opacity="0.12"/>
  <path d="M35 12L50 9L65 12L63.5 27L50 42L36.5 27L35 12Z" fill="#E8562A"/>
  <!-- Rat silhouette inside shield -->
  <path d="M42 26C42 24 44 22 46 22H48C49 22 50 23 50 24V26C50 27 49 28 48 28H46C44 28 42 27 42 26Z" fill="white"/>
  <ellipse cx="47" cy="26" rx="0.8" ry="0.8" fill="#E8562A"/>
  <!-- Bacteria dots -->
  <circle cx="54" cy="23" r="1.5" fill="white" opacity="0.8"/>
  <circle cx="56" cy="26" r="1" fill="white" opacity="0.6"/>
  <circle cx="52" cy="28" r="1" fill="white" opacity="0.7"/>
  <!-- Crossed-out insect -->
  <line x1="40" y1="32" x2="60" y2="32" stroke="white" stroke-width="1.5" stroke-linecap="round"/>
  <line x1="50" y1="28" x2="50" y2="36" stroke="white" stroke-width="1.5" stroke-linecap="round"/>
  <circle cx="50" cy="32" r="3" stroke="white" stroke-width="1" fill="none"/>
  <!-- Company name -->
  <text x="78" y="30" font-family="Inter, system-ui, sans-serif" font-size="18" font-weight="700" fill="#2D3436" letter-spacing="-0.5">HYGIÈNE</text>
  <text x="78" y="46" font-family="Inter, system-ui, sans-serif" font-size="12" font-weight="500" fill="#E8562A" letter-spacing="1.5">PRO SERVICES</text>
</svg>
